{"glyphs":{"0":{"ha":920,"x_min":0,"x_max":907,"o":"m 754 607 q 862 562 817 607 q 907 454 907 517 q 862 345 907 391 q 754 300 817 300 q 650 257 692 300 q 607 154 607 214 q 562 45 607 90 q 454 0 517 0 q 345 45 391 0 q 300 154 300 90 q 257 257 300 214 q 154 300 214 300 q 45 345 90 300 q 0 454 0 391 q 45 562 0 517 q 154 607 90 607 q 257 650 214 607 q 300 754 300 692 q 345 862 300 817 q 454 907 391 907 q 562 862 517 907 q 607 754 607 817 q 650 650 607 692 q 754 607 692 607 m 304 421 q 302 419 302 421 q 304 421 302 421 m 454 307 q 557 350 515 307 q 600 454 600 393 q 557 557 600 515 q 454 600 515 600 q 350 557 393 600 q 307 454 307 515 q 350 350 307 393 q 454 307 393 307 m 604 421 l 604 419 l 604 421 z "},"1":{"ha":920,"x_min":300,"x_max":607,"o":"m 607 454 q 562 345 607 391 q 454 300 517 300 q 345 345 391 300 q 300 454 300 391 q 345 562 300 517 q 454 607 391 607 q 562 562 517 607 q 607 454 607 517 m 607 454 q 562 345 607 391 q 454 300 517 300 q 345 345 391 300 q 300 454 300 391 q 345 562 300 517 q 454 607 391 607 q 562 562 517 607 q 607 454 607 517 z "},"2":{"ha":920,"x_min":0,"x_max":907,"o":"m 307 154 q 262 45 307 91 q 154 0 217 0 q 45 45 90 0 q 0 154 0 90 q 45 262 0 217 q 154 307 91 307 q 262 262 216 307 q 307 154 307 216 m 907 754 q 862 645 907 690 q 754 600 817 600 q 645 645 690 600 q 600 754 600 690 q 645 862 600 817 q 754 907 690 907 q 862 862 817 907 q 907 754 907 817 z "},"3":{"ha":920,"x_min":0,"x_max":907,"o":"m 607 454 q 562 345 607 391 q 454 300 517 300 q 345 345 391 300 q 300 454 300 391 q 345 562 300 517 q 454 607 391 607 q 562 562 517 607 q 607 454 607 517 m 307 154 q 262 45 307 91 q 154 0 217 0 q 45 45 90 0 q 0 154 0 90 q 45 262 0 217 q 154 307 91 307 q 262 262 216 307 q 307 154 307 216 m 907 754 q 862 645 907 690 q 754 600 817 600 q 645 645 690 600 q 600 754 600 690 q 645 862 600 817 q 754 907 690 907 q 862 862 817 907 q 907 754 907 817 z "},"4":{"ha":920,"x_min":0,"x_max":907,"o":"m 307 154 q 262 45 307 91 q 154 0 217 0 q 45 45 90 0 q 0 154 0 90 q 45 262 0 217 q 154 307 91 307 q 262 262 216 307 q 307 154 307 216 m 907 154 q 862 45 907 90 q 754 0 817 0 q 645 45 690 0 q 600 154 600 90 q 645 262 600 217 q 754 307 690 307 q 862 262 817 307 q 907 154 907 216 m 307 754 q 262 645 307 690 q 154 600 217 600 q 45 645 90 600 q 0 754 0 690 q 45 862 0 817 q 154 907 90 907 q 262 862 216 907 q 307 754 307 817 m 907 754 q 862 645 907 690 q 754 600 817 600 q 645 645 690 600 q 600 754 600 690 q 645 862 600 817 q 754 907 690 907 q 862 862 817 907 q 907 754 907 817 z "},"5":{"ha":920,"x_min":0,"x_max":907,"o":"m 607 454 q 562 345 607 391 q 454 300 517 300 q 345 345 391 300 q 300 454 300 391 q 345 562 300 517 q 454 607 391 607 q 562 562 517 607 q 607 454 607 517 m 307 154 q 262 45 307 91 q 154 0 217 0 q 45 45 90 0 q 0 154 0 90 q 45 262 0 217 q 154 307 91 307 q 262 262 216 307 q 307 154 307 216 m 907 154 q 862 45 907 90 q 754 0 817 0 q 645 45 690 0 q 600 154 600 90 q 645 262 600 217 q 754 307 690 307 q 862 262 817 307 q 907 154 907 216 m 307 754 q 262 645 307 690 q 154 600 217 600 q 45 645 90 600 q 0 754 0 690 q 45 862 0 817 q 154 907 90 907 q 262 862 216 907 q 307 754 307 817 m 907 754 q 862 645 907 690 q 754 600 817 600 q 645 645 690 600 q 600 754 600 690 q 645 862 600 817 q 754 907 690 907 q 862 862 817 907 q 907 754 907 817 m 607 454 q 562 345 607 391 q 454 300 517 300 q 345 345 391 300 q 300 454 300 391 q 345 562 300 517 q 454 607 391 607 q 562 562 517 607 q 607 454 607 517 z "},"6":{"ha":920,"x_min":0,"x_max":907,"o":"m 307 154 q 262 45 307 91 q 154 0 217 0 q 45 45 90 0 q 0 154 0 90 q 45 262 0 217 q 154 307 91 307 q 262 262 216 307 q 307 154 307 216 m 607 154 q 562 45 607 90 q 454 0 517 0 q 345 45 391 0 q 300 154 300 90 q 345 262 300 216 q 454 307 391 307 q 562 262 517 307 q 607 154 607 216 m 907 754 q 862 645 907 690 q 754 600 817 600 q 645 645 690 600 q 600 754 600 690 q 645 862 600 817 q 754 907 690 907 q 862 862 817 907 q 907 754 907 817 m 907 454 q 862 345 907 391 q 754 300 817 300 q 645 345 690 300 q 600 454 600 391 q 645 562 600 517 q 754 607 690 607 q 862 562 817 607 q 907 454 907 517 m 307 454 q 262 345 307 391 q 154 300 216 300 q 45 345 90 300 q 0 454 0 391 q 45 562 0 517 q 154 607 90 607 q 262 562 216 607 q 307 454 307 517 m 607 754 q 562 645 607 690 q 454 600 517 600 q 345 645 391 600 q 300 754 300 690 q 345 862 300 817 q 454 907 391 907 q 562 862 517 907 q 607 754 607 817 z "},"7":{"ha":920,"x_min":0,"x_max":907,"o":"m 607 454 q 562 345 607 391 q 454 300 517 300 q 345 345 391 300 q 300 454 300 391 q 345 562 300 517 q 454 607 391 607 q 562 562 517 607 q 607 454 607 517 m 907 154 q 862 45 907 90 q 754 0 817 0 q 645 45 690 0 q 600 154 600 90 q 645 262 600 217 q 754 307 690 307 q 862 262 817 307 q 907 154 907 216 m 307 754 q 262 645 307 690 q 154 600 217 600 q 45 645 90 600 q 0 754 0 690 q 45 862 0 817 q 154 907 90 907 q 262 862 216 907 q 307 754 307 817 m 907 754 q 862 645 907 690 q 754 600 817 600 q 645 645 690 600 q 600 754 600 690 q 645 862 600 817 q 754 907 690 907 q 862 862 817 907 q 907 754 907 817 m 907 454 q 862 345 907 391 q 754 300 817 300 q 645 345 690 300 q 600 454 600 391 q 645 562 600 517 q 754 607 690 607 q 862 562 817 607 q 907 454 907 517 m 607 754 q 562 645 607 690 q 454 600 517 600 q 345 645 391 600 q 300 754 300 690 q 345 862 300 817 q 454 907 391 907 q 562 862 517 907 q 607 754 607 817 m 607 454 q 562 345 607 391 q 454 300 517 300 q 345 345 391 300 q 300 454 300 391 q 345 562 300 517 q 454 607 391 607 q 562 562 517 607 q 607 454 607 517 z "},"8":{"ha":920,"x_min":0,"x_max":907,"o":"m 607 454 q 562 562 607 517 q 454 607 517 607 q 562 562 517 607 q 607 454 607 517 m 607 454 q 562 345 607 391 q 454 300 517 300 q 345 345 391 300 q 300 454 300 391 q 345 562 300 517 q 454 607 391 607 q 562 562 517 607 q 607 454 607 517 m 307 154 q 262 45 307 91 q 154 0 217 0 q 45 45 90 0 q 0 154 0 90 q 45 262 0 217 q 154 307 91 307 q 262 262 216 307 q 307 154 307 216 m 907 154 q 862 45 907 90 q 754 0 817 0 q 645 45 690 0 q 600 154 600 90 q 645 262 600 217 q 754 307 690 307 q 862 262 817 307 q 907 154 907 216 m 607 154 q 562 45 607 90 q 454 0 517 0 q 345 45 391 0 q 300 154 300 90 q 345 262 300 216 q 454 307 391 307 q 562 262 517 307 q 607 154 607 216 m 907 754 q 862 645 907 690 q 754 600 817 600 q 645 645 690 600 q 600 754 600 690 q 645 862 600 817 q 754 907 690 907 q 862 862 817 907 q 907 754 907 817 m 907 454 q 862 345 907 391 q 754 300 817 300 q 645 345 690 300 q 600 454 600 391 q 645 562 600 517 q 754 607 690 607 q 862 562 817 607 q 907 454 907 517 m 307 454 q 262 345 307 391 q 154 300 216 300 q 45 345 90 300 q 0 454 0 391 q 45 562 0 517 q 154 607 90 607 q 262 562 216 607 q 307 454 307 517 m 607 754 q 562 645 607 690 q 454 600 517 600 q 345 645 391 600 q 300 754 300 690 q 345 862 300 817 q 454 907 391 907 q 562 862 517 907 q 607 754 607 817 m 607 454 q 562 345 607 391 q 454 300 517 300 q 345 345 391 300 q 300 454 300 391 q 345 562 300 517 q 454 607 391 607 q 562 562 517 607 q 607 454 607 517 z "},"9":{"ha":920,"x_min":0,"x_max":907,"o":"m 607 454 q 562 345 607 391 q 454 300 517 300 q 345 345 391 300 q 300 454 300 391 q 345 562 300 517 q 454 607 391 607 q 562 562 517 607 q 607 454 607 517 m 307 154 q 262 45 307 91 q 154 0 217 0 q 45 45 90 0 q 0 154 0 90 q 45 262 0 217 q 154 307 91 307 q 262 262 216 307 q 307 154 307 216 m 907 154 q 862 45 907 90 q 754 0 817 0 q 645 45 690 0 q 600 154 600 90 q 645 262 600 217 q 754 307 690 307 q 862 262 817 307 q 907 154 907 216 m 607 154 q 562 45 607 90 q 454 0 517 0 q 345 45 391 0 q 300 154 300 90 q 345 262 300 216 q 454 307 391 307 q 562 262 517 307 q 607 154 607 216 m 307 754 q 262 645 307 690 q 154 600 217 600 q 45 645 90 600 q 0 754 0 690 q 45 862 0 817 q 154 907 90 907 q 262 862 216 907 q 307 754 307 817 m 907 754 q 862 645 907 690 q 754 600 817 600 q 645 645 690 600 q 600 754 600 690 q 645 862 600 817 q 754 907 690 907 q 862 862 817 907 q 907 754 907 817 m 907 454 q 862 345 907 391 q 754 300 817 300 q 645 345 690 300 q 600 454 600 391 q 645 562 600 517 q 754 607 690 607 q 862 562 817 607 q 907 454 907 517 m 307 454 q 262 345 307 391 q 154 300 216 300 q 45 345 90 300 q 0 454 0 391 q 45 562 0 517 q 154 607 90 607 q 262 562 216 607 q 307 454 307 517 m 607 754 q 562 645 607 690 q 454 600 517 600 q 345 645 391 600 q 300 754 300 690 q 345 862 300 817 q 454 907 391 907 q 562 862 517 907 q 607 754 607 817 m 607 454 q 562 345 607 391 q 454 300 517 300 q 345 345 391 300 q 300 454 300 391 q 345 562 300 517 q 454 607 391 607 q 562 562 517 607 q 607 454 607 517 z "},"\u0000":{"ha":0,"x_min":0,"x_max":0,"o":""},"\r":{"ha":347,"x_min":0,"x_max":0,"o":""}," ":{"ha":616,"x_min":0,"x_max":0,"o":""},"!":{"ha":321,"x_min":0,"x_max":307,"o":"m 186 304 q 273 250 238 293 q 307 154 307 208 q 262 45 307 91 q 154 0 217 0 q 45 45 90 0 q 0 154 0 90 q 34 250 0 208 q 121 302 68 292 q 34 357 68 314 q 0 453 0 399 l 0 753 q 45 862 0 817 q 154 907 90 907 q 262 862 216 907 q 307 754 307 817 l 307 454 q 273 357 307 399 q 186 304 238 315 z "},"#":{"ha":897,"x_min":0,"x_max":0,"o":""},"%":{"ha":1154,"x_min":0,"x_max":0,"o":""},"&":{"ha":1017,"x_min":0,"x_max":0,"o":""},"*":{"ha":765,"x_min":0,"x_max":0,"o":""},",":{"ha":321,"x_min":0,"x_max":307,"o":"m 307 154 l 307 -147 q 262 -255 307 -210 q 154 -300 216 -300 q 45 -255 90 -300 q 0 -147 0 -210 l 0 154 q 45 262 0 217 q 154 307 91 307 q 262 262 216 307 q 307 154 307 216 z "},".":{"ha":321,"x_min":0,"x_max":307,"o":"m 45 47 q 23 69 45 47 q 0 155 0 92 q 45 264 0 219 q 154 310 90 310 q 262 264 216 310 q 307 155 307 219 q 262 47 307 92 q 154 3 217 3 q 45 47 90 3 z "},"/":{"ha":920,"x_min":0,"x_max":907,"o":"m 907 754 q 862 645 907 690 q 754 600 817 600 q 650 557 692 600 q 607 454 607 515 q 562 345 607 391 q 454 300 517 300 q 350 257 393 300 q 307 154 307 214 q 262 45 307 91 q 154 0 217 0 q 45 45 90 0 q 0 154 0 90 q 45 262 0 217 q 154 307 91 307 q 257 350 214 307 q 300 454 300 393 q 345 562 300 517 q 454 607 391 607 q 557 650 515 607 q 600 754 600 692 q 645 862 600 817 q 754 907 690 907 q 862 862 817 907 q 907 754 907 817 z "},":":{"ha":321,"x_min":0,"x_max":307,"o":"m 0 1054 q 45 1162 0 1116 q 154 1207 91 1207 q 262 1162 216 1207 q 307 1054 307 1116 q 262 945 307 990 q 154 900 217 900 q 45 945 90 900 q 0 1054 0 990 m 45 47 q 23 69 45 47 q 0 155 0 92 q 45 264 0 219 q 154 310 90 310 q 262 264 216 310 q 307 155 307 219 q 262 47 307 92 q 154 3 217 3 q 45 47 90 3 z "},";":{"ha":321,"x_min":0,"x_max":307,"o":"m 0 754 q 45 862 0 817 q 154 907 90 907 q 262 862 216 907 q 307 754 307 817 q 262 645 307 690 q 154 600 217 600 q 45 645 90 600 q 0 754 0 690 m 307 154 l 307 -147 q 262 -255 307 -210 q 154 -300 216 -300 q 45 -255 90 -300 q 0 -147 0 -210 l 0 154 q 45 262 0 217 q 154 307 91 307 q 262 262 216 307 q 307 154 307 216 z "},"?":{"ha":920,"x_min":0,"x_max":907,"o":"m 907 754 q 863 647 907 692 q 758 600 820 602 l 753 600 q 650 557 692 600 q 607 454 607 515 q 573 357 607 399 q 486 304 538 315 q 573 250 538 293 q 607 154 607 208 q 562 45 607 90 q 454 0 517 0 q 345 45 391 0 q 300 154 300 90 q 334 250 300 208 q 421 302 369 292 q 334 357 369 314 q 300 453 300 399 q 330 545 300 504 q 408 600 361 585 l 153 600 q 45 645 90 600 q 0 754 0 690 q 45 862 0 817 q 154 907 90 907 l 758 907 q 863 860 820 905 q 907 754 907 816 z "},"@":{"ha":1249,"x_min":0,"x_max":0,"o":""},"A":{"ha":920,"x_min":0,"x_max":907,"o":"m 754 607 q 862 562 817 607 q 907 454 907 517 l 907 154 q 862 45 907 90 q 754 0 817 0 q 657 34 699 0 q 604 121 614 68 q 550 34 593 68 q 454 0 508 0 q 357 34 399 0 q 304 121 315 68 q 250 34 293 68 q 154 0 208 0 q 45 45 90 0 q 0 154 0 90 l 0 454 q 45 562 0 517 q 154 607 90 607 q 257 650 214 607 q 300 754 300 692 q 345 862 300 817 q 454 907 391 907 q 562 862 517 907 q 607 754 607 817 q 650 650 607 692 q 754 607 692 607 m 600 199 l 600 454 q 557 557 600 515 q 454 600 515 600 q 350 557 393 600 q 307 454 307 515 l 307 199 q 363 277 322 246 q 454 307 404 307 q 545 277 505 307 q 600 199 585 246 z "},"B":{"ha":920,"x_min":0,"x_max":907,"o":"m 121 304 q 34 357 68 315 q 0 454 0 399 l 0 754 q 45 862 0 817 q 154 907 90 907 q 262 862 216 907 q 307 754 307 817 l 307 498 q 363 576 322 546 q 454 607 404 607 q 550 573 508 607 q 604 486 593 538 q 657 573 614 538 q 754 607 699 607 q 862 562 817 607 q 907 454 907 517 q 862 345 907 391 q 754 300 817 300 q 650 257 692 300 q 607 154 607 214 q 562 45 607 90 q 454 0 517 0 q 357 34 399 0 q 304 121 315 68 q 250 34 293 68 q 154 0 208 0 q 45 45 90 0 q 0 154 0 90 q 34 250 0 208 q 121 304 68 293 m 186 304 q 262 262 230 294 q 304 186 294 230 q 345 262 313 229 q 421 304 377 294 q 345 345 377 313 q 304 421 313 377 q 262 345 294 377 q 186 304 229 313 z "},"C":{"ha":920,"x_min":0,"x_max":907,"o":"m 907 154 q 862 45 907 90 q 754 0 817 0 l 454 0 q 345 45 391 0 q 300 154 300 90 q 257 257 300 214 q 154 300 214 300 q 45 345 90 300 q 0 454 0 391 q 45 562 0 517 q 154 607 90 607 q 257 650 214 607 q 300 754 300 692 q 345 862 300 817 q 454 907 391 907 l 754 907 q 862 862 817 907 q 907 754 907 817 q 862 645 907 690 q 754 600 817 600 l 454 600 q 350 557 393 600 q 307 454 307 515 q 350 350 307 393 q 454 307 393 307 l 754 307 q 862 262 817 307 q 907 154 907 216 z "},"D":{"ha":920,"x_min":0,"x_max":907,"o":"m 907 454 q 872 357 907 399 q 786 304 838 315 q 872 250 838 293 q 907 154 907 208 q 862 45 907 90 q 754 0 817 0 q 657 34 699 0 q 604 121 614 68 q 550 34 593 68 q 454 0 508 0 q 345 45 391 0 q 300 154 300 90 q 257 257 300 214 q 154 300 214 300 q 45 345 90 300 q 0 454 0 391 q 45 562 0 517 q 154 607 90 607 q 250 573 208 607 q 304 486 293 538 q 357 573 315 538 q 454 607 399 607 q 545 576 505 607 q 600 498 585 546 l 600 754 q 645 862 600 817 q 754 907 690 907 q 862 862 817 907 q 907 754 907 817 l 907 454 m 604 186 q 645 262 613 229 q 721 304 677 294 q 645 345 677 313 q 604 421 613 377 q 562 345 594 377 q 486 304 530 313 q 562 262 530 294 q 604 186 594 230 z "},"E":{"ha":920,"x_min":0,"x_max":907,"o":"m 907 154 q 862 45 907 90 q 754 0 817 0 l 454 0 q 357 34 399 0 q 304 121 315 68 q 250 34 293 68 q 154 0 208 0 q 45 45 90 0 q 0 154 0 90 q 45 262 0 217 q 154 307 91 307 q 257 350 214 307 q 300 454 300 393 q 257 557 300 515 q 154 600 214 600 q 45 645 90 600 q 0 754 0 690 q 45 862 0 817 q 154 907 90 907 q 250 872 208 907 q 304 786 293 838 q 357 872 315 838 q 453 907 399 907 l 753 907 q 862 862 817 907 q 907 754 907 817 q 862 645 907 690 q 754 600 817 600 l 498 600 q 576 545 546 585 q 607 454 607 505 q 576 363 607 404 q 498 307 546 322 l 754 307 q 862 262 817 307 q 907 154 907 216 z "},"F":{"ha":920,"x_min":0,"x_max":907,"o":"m 907 754 q 862 645 907 690 q 754 600 817 600 l 498 600 q 576 545 546 585 q 607 454 607 505 q 562 345 607 391 q 454 300 517 300 q 350 257 393 300 q 307 154 307 214 q 262 45 307 91 q 154 0 217 0 q 45 45 90 0 q 0 154 0 90 q 45 262 0 217 q 154 307 91 307 q 257 350 214 307 q 300 454 300 393 q 257 557 300 515 q 154 600 214 600 q 45 645 90 600 q 0 754 0 690 q 45 862 0 817 q 154 907 90 907 q 250 872 208 907 q 302 786 292 838 q 357 872 314 838 q 453 907 399 907 l 753 907 q 862 862 817 907 q 907 754 907 817 z "},"G":{"ha":920,"x_min":0,"x_max":907,"o":"m 907 454 q 872 357 907 399 q 786 304 838 315 q 872 250 838 293 q 907 154 907 208 q 862 45 907 90 q 754 0 817 0 l 454 0 q 345 45 391 0 q 300 154 300 90 q 257 257 300 214 q 154 300 214 300 q 45 345 90 300 q 0 454 0 391 q 45 562 0 517 q 154 607 90 607 q 257 650 214 607 q 300 754 300 692 q 345 862 300 817 q 453 907 391 907 l 753 907 l 754 907 q 862 862 817 907 q 907 754 907 817 q 872 657 907 699 q 786 604 838 614 q 872 550 838 593 q 907 454 907 508 m 304 486 q 302 488 302 486 q 304 486 302 486 m 600 454 q 630 545 600 505 q 708 600 661 585 l 454 600 q 350 557 393 600 q 307 454 307 515 q 350 350 307 393 q 454 307 393 307 q 557 350 515 307 q 600 454 600 393 z "},"H":{"ha":907,"x_min":0,"x_max":907,"o":"m 907 754 l 907 154 q 862 45 907 90 q 754 0 817 0 q 645 45 690 0 q 600 154 600 90 l 600 408 q 545 330 585 361 q 453 300 504 300 q 362 330 403 300 q 307 408 322 361 l 307 153 q 262 45 307 90 q 154 0 216 0 q 45 45 90 0 q 0 154 0 90 l 0 754 q 45 862 0 817 q 154 907 90 907 q 262 862 216 907 q 307 754 307 817 l 307 498 q 363 576 322 546 q 454 607 404 607 q 545 576 505 607 q 600 498 585 546 l 600 754 q 645 862 600 817 q 754 907 690 907 q 862 862 817 907 q 907 754 907 817 z "},"I":{"ha":321,"x_min":0,"x_max":307,"o":"m 307 754 l 307 154 q 262 45 307 91 q 154 0 217 0 q 45 45 90 0 q 0 154 0 90 l 0 754 q 45 862 0 817 q 154 907 90 907 q 262 862 216 907 q 307 754 307 817 z "},"J":{"ha":920,"x_min":0,"x_max":907,"o":"m 907 754 l 907 454 q 862 345 907 391 q 754 300 817 300 q 650 257 692 300 q 607 154 607 214 q 562 45 607 90 q 454 0 517 0 q 345 45 391 0 q 300 154 300 90 q 257 257 300 214 q 154 300 214 300 q 45 345 90 300 q 0 454 0 391 q 45 562 0 517 q 154 607 90 607 q 262 562 216 607 q 307 454 307 517 q 350 350 307 393 q 454 307 393 307 q 557 350 515 307 q 600 454 600 393 l 600 754 q 645 862 600 817 q 754 907 690 907 q 862 862 817 907 q 907 754 907 817 z "},"K":{"ha":920,"x_min":0,"x_max":907,"o":"m 907 154 q 862 45 907 90 q 754 0 817 0 q 645 45 690 0 q 600 154 600 90 q 557 257 600 214 q 454 300 515 300 q 363 330 404 300 q 307 408 322 361 l 307 153 q 262 45 307 90 q 154 0 216 0 q 45 45 90 0 q 0 154 0 90 l 0 754 q 45 862 0 817 q 154 907 90 907 q 262 862 216 907 q 307 754 307 817 l 307 498 q 363 576 322 546 q 454 607 404 607 q 557 650 515 607 q 600 754 600 692 q 645 862 600 817 q 754 907 690 907 q 862 862 817 907 q 907 754 907 817 q 862 645 907 690 q 754 600 817 600 q 650 557 692 600 q 607 454 607 515 q 650 350 607 393 q 754 307 692 307 q 862 262 817 307 q 907 154 907 216 z "},"L":{"ha":920,"x_min":0,"x_max":907,"o":"m 907 154 q 862 45 907 90 q 754 0 817 0 l 454 0 q 345 45 391 0 q 300 154 300 90 q 257 257 300 214 q 154 300 214 300 q 45 345 90 300 q 0 454 0 391 l 0 754 q 45 862 0 817 q 154 907 90 907 q 262 862 216 907 q 307 754 307 817 l 307 454 q 350 350 307 393 q 454 307 393 307 l 754 307 q 862 262 817 307 q 907 154 907 216 z "},"M":{"ha":920,"x_min":0,"x_max":907,"o":"m 907 454 l 907 154 q 862 45 907 90 q 754 0 817 0 q 645 45 690 0 q 600 154 600 90 l 600 408 q 545 330 585 361 q 453 300 504 300 q 362 330 403 300 q 307 408 322 361 l 307 153 q 262 45 307 90 q 154 0 216 0 q 45 45 90 0 q 0 154 0 90 l 0 454 q 34 550 0 508 q 121 604 68 593 q 34 657 68 614 q 0 754 0 699 q 45 862 0 817 q 154 907 90 907 q 262 862 216 907 q 307 754 307 817 q 350 650 307 692 q 454 607 393 607 q 557 650 515 607 q 600 754 600 692 q 645 862 600 817 q 754 907 690 907 q 862 862 817 907 q 907 754 907 817 q 872 657 907 699 q 786 604 838 614 q 872 550 838 593 q 907 454 907 508 z "},"N":{"ha":920,"x_min":0,"x_max":907,"o":"m 907 454 l 907 154 q 862 45 907 90 q 754 0 817 0 q 645 45 690 0 q 600 154 600 90 l 600 454 q 557 557 600 515 q 454 600 515 600 q 350 557 393 600 q 307 454 307 515 l 307 154 q 262 45 307 91 q 154 0 217 0 q 45 45 90 0 q 0 154 0 90 l 0 454 q 34 550 0 508 q 121 604 68 593 q 34 657 68 614 q 0 754 0 699 q 45 862 0 817 q 154 907 90 907 l 454 907 q 562 862 517 907 q 607 754 607 817 q 650 650 607 692 q 754 607 692 607 q 862 562 817 607 q 907 454 907 517 z "},"O":{"ha":920,"x_min":0,"x_max":907,"o":"m 786 604 q 872 550 838 593 q 907 454 907 508 q 862 345 907 391 q 754 300 817 300 q 650 257 692 300 q 607 154 607 214 q 562 45 607 90 q 454 0 517 0 l 154 0 q 45 45 90 0 q 0 154 0 90 q 34 250 0 208 q 121 304 68 293 q 34 357 68 315 q 0 454 0 399 q 45 562 0 517 q 154 607 90 607 q 257 650 214 607 q 300 754 300 692 q 345 862 300 817 q 454 907 391 907 l 754 907 q 862 862 817 907 q 907 754 907 817 q 872 657 907 699 q 786 604 838 614 m 600 454 q 630 545 600 505 q 708 600 661 585 l 454 600 q 350 557 393 600 q 307 454 307 515 q 277 363 307 404 q 199 307 246 322 l 454 307 q 557 350 515 307 q 600 454 600 393 z "},"P":{"ha":920,"x_min":0,"x_max":907,"o":"m 0 454 q 34 550 0 508 q 121 604 68 593 q 34 657 68 614 q 0 754 0 699 q 45 862 0 817 q 154 907 90 907 q 250 872 208 907 q 304 786 293 838 q 357 872 315 838 q 454 907 399 907 q 562 862 517 907 q 607 754 607 817 q 650 650 607 692 q 754 607 692 607 q 862 562 817 607 q 907 454 907 517 q 862 345 907 391 q 754 300 817 300 q 657 334 699 300 q 604 421 614 369 q 550 334 593 369 q 454 300 508 300 q 363 330 404 300 q 307 408 322 361 l 307 154 q 262 45 307 91 q 154 0 217 0 q 45 45 90 0 q 0 154 0 90 l 0 454 m 304 721 q 262 645 294 677 q 186 603 230 613 q 262 562 229 594 q 304 486 294 530 q 345 562 313 530 q 421 603 377 594 q 345 645 377 613 q 304 721 313 677 z "},"Q":{"ha":920,"x_min":0,"x_max":907,"o":"m 907 454 q 872 357 907 399 q 786 304 838 315 q 872 250 838 293 q 907 154 907 208 q 862 45 907 90 q 754 0 817 0 q 657 34 699 0 q 604 121 614 68 q 550 34 593 68 q 454 0 508 0 l 154 0 q 45 45 90 0 q 0 154 0 90 q 34 250 0 208 q 121 304 68 293 q 34 357 68 315 q 0 454 0 399 q 45 562 0 517 q 154 607 90 607 q 257 650 214 607 q 300 754 300 692 q 345 862 300 817 q 454 907 391 907 l 754 907 q 862 862 817 907 q 907 754 907 817 q 872 657 907 699 q 786 604 838 614 q 872 550 838 593 q 907 454 907 508 m 600 454 q 630 545 600 505 q 708 600 661 585 l 454 600 q 350 557 393 600 q 307 454 307 515 q 277 363 307 404 q 199 307 246 322 l 454 307 q 557 350 515 307 q 600 454 600 393 z "},"R":{"ha":920,"x_min":0,"x_max":907,"o":"m 907 754 q 862 645 907 690 q 754 600 817 600 l 454 600 q 350 557 393 600 q 307 454 307 515 l 307 154 q 262 45 307 91 q 154 0 217 0 q 45 45 90 0 q 0 154 0 90 l 0 454 q 45 562 0 517 q 154 607 90 607 q 257 650 214 607 q 300 754 300 692 q 345 862 300 817 q 454 907 391 907 l 754 907 q 862 862 817 907 q 907 754 907 817 z "},"S":{"ha":920,"x_min":0,"x_max":907,"o":"m 907 154 q 862 45 907 90 q 754 0 817 0 q 657 34 699 0 q 604 121 614 68 q 550 34 593 68 q 454 0 508 0 l 154 0 q 45 45 90 0 q 0 154 0 90 q 45 262 0 217 q 154 307 91 307 l 408 307 q 330 363 361 322 q 300 454 300 404 q 257 557 300 515 q 154 600 214 600 q 45 645 90 600 q 0 754 0 690 q 45 862 0 817 q 154 907 90 907 q 250 872 208 907 q 302 786 292 838 q 357 872 314 838 q 453 907 399 907 l 753 907 q 862 862 817 907 q 907 754 907 817 q 862 645 907 690 q 754 600 817 600 l 498 600 q 576 545 546 585 q 607 454 607 505 q 573 357 607 399 q 486 304 538 315 q 562 262 530 294 q 604 186 594 230 q 657 273 614 238 q 754 307 699 307 q 862 262 817 307 q 907 154 907 216 z "},"T":{"ha":920,"x_min":0,"x_max":907,"o":"m 907 754 q 863 647 907 692 q 758 600 820 602 l 498 600 q 576 545 546 585 q 607 454 607 505 l 607 154 q 562 45 607 90 q 454 0 517 0 q 345 45 391 0 q 300 154 300 90 l 300 454 q 330 545 300 505 q 408 600 361 585 l 153 600 q 45 645 90 600 q 0 754 0 690 q 45 862 0 817 q 154 907 90 907 l 758 907 q 863 860 820 905 q 907 754 907 816 z "},"U":{"ha":920,"x_min":0,"x_max":907,"o":"m 786 304 q 872 250 838 293 q 907 154 907 208 q 862 45 907 90 q 754 0 817 0 l 454 0 q 357 34 399 0 q 302 121 314 68 q 250 34 292 68 q 153 0 208 0 q 45 45 90 0 q 0 154 0 90 q 34 250 0 208 q 121 304 68 293 q 34 357 68 315 q 0 454 0 399 l 0 754 q 45 862 0 817 q 154 907 90 907 q 262 862 216 907 q 307 754 307 817 l 307 454 q 350 350 307 393 q 454 307 393 307 q 557 350 515 307 q 600 454 600 393 l 600 754 q 645 862 600 817 q 754 907 690 907 q 862 862 817 907 q 907 754 907 817 l 907 454 q 872 357 907 399 q 786 304 838 315 z "},"V":{"ha":920,"x_min":0,"x_max":907,"o":"m 907 754 l 907 454 q 862 345 907 391 q 754 300 817 300 q 650 257 692 300 q 607 154 607 214 q 562 45 607 90 q 454 0 517 0 q 345 45 391 0 q 300 154 300 90 q 257 257 300 214 q 154 300 214 300 q 45 345 90 300 q 0 454 0 391 l 0 754 q 45 862 0 817 q 154 907 90 907 q 262 862 216 907 q 307 754 307 817 l 307 454 q 350 350 307 393 q 454 307 393 307 q 557 350 515 307 q 600 454 600 393 l 600 754 q 645 862 600 817 q 754 907 690 907 q 862 862 817 907 q 907 754 907 817 z "},"W":{"ha":920,"x_min":0,"x_max":907,"o":"m 786 304 q 872 250 838 293 q 907 154 907 208 q 862 45 907 90 q 754 0 817 0 q 645 45 690 0 q 600 154 600 90 q 557 257 600 214 q 454 300 515 300 q 350 257 393 300 q 307 154 307 214 q 262 45 307 91 q 154 0 217 0 q 45 45 90 0 q 0 154 0 90 q 34 250 0 208 q 121 304 68 293 q 34 357 68 315 q 0 454 0 399 l 0 754 q 45 862 0 817 q 154 907 90 907 q 262 862 216 907 q 307 754 307 817 l 307 498 q 363 576 322 546 q 454 607 404 607 q 545 576 505 607 q 600 498 585 546 l 600 754 q 645 862 600 817 q 754 907 690 907 q 862 862 817 907 q 907 754 907 817 l 907 454 q 872 357 907 399 q 786 304 838 315 z "},"X":{"ha":920,"x_min":-3,"x_max":909,"o":"m 865 265 q 887 243 865 265 q 909 157 909 220 q 865 48 909 93 q 757 3 821 3 q 648 48 693 3 q 603 157 603 93 q 560 260 603 217 q 457 302 517 302 q 361 267 401 302 q 313 179 320 232 q 313 168 313 176 q 314 157 314 160 q 311 132 314 149 q 269 48 304 85 q 187 3 234 12 q 93 14 138 -7 q 22 77 47 34 q 1 169 -3 119 q 36 257 5 218 q 100 303 62 288 q 179 313 139 318 q 268 361 233 321 q 302 457 302 402 q 260 560 302 517 q 157 603 217 603 q 48 648 93 603 q 3 757 3 693 q 48 865 3 821 q 157 909 93 909 q 265 865 220 909 q 310 757 310 821 q 353 653 310 696 q 457 610 397 610 q 560 653 517 610 q 603 757 603 696 q 648 865 603 821 q 757 909 693 909 q 865 865 821 909 q 909 757 909 821 q 865 648 909 693 q 757 603 821 603 q 653 560 696 603 q 610 457 610 517 q 653 353 610 397 q 757 310 696 310 q 865 265 821 310 z "},"Y":{"ha":920,"x_min":0,"x_max":907,"o":"m 907 754 q 862 645 907 690 q 754 600 817 600 q 650 557 692 600 q 607 454 607 515 q 573 357 607 399 q 486 304 538 315 q 573 250 538 293 q 607 154 607 208 q 562 45 607 90 q 454 0 517 0 l 154 0 q 45 45 90 0 q 0 154 0 90 q 45 262 0 217 q 154 307 91 307 q 250 273 208 307 q 304 186 293 238 q 345 262 313 229 q 421 304 377 294 q 334 357 369 315 q 300 454 300 399 q 257 557 300 515 q 154 600 214 600 q 45 645 90 600 q 0 754 0 690 q 45 862 0 817 q 154 907 90 907 q 262 862 216 907 q 307 754 307 817 q 350 650 307 692 q 454 607 393 607 q 557 650 515 607 q 600 754 600 692 q 645 862 600 817 q 754 907 690 907 q 862 862 817 907 q 907 754 907 817 z "},"Z":{"ha":920,"x_min":0,"x_max":907,"o":"m 907 154 q 867 50 907 94 q 768 1 827 7 q 765 0 768 0 l 465 0 l 464 0 l 453 0 q 357 34 399 0 q 302 121 314 68 q 250 34 292 68 q 153 0 208 0 q 45 45 90 0 q 0 154 0 90 q 45 262 0 217 q 154 307 91 307 q 250 273 208 307 q 304 186 293 238 q 345 262 313 229 q 421 304 377 294 q 334 357 369 315 q 300 454 300 399 q 330 545 300 505 q 408 600 361 585 l 154 600 q 45 645 90 600 q 0 754 0 690 q 45 862 0 817 q 154 907 90 907 l 454 907 q 550 872 508 907 q 604 786 593 838 q 657 872 614 838 q 754 907 699 907 q 862 862 817 907 q 907 754 907 817 q 862 645 907 690 q 754 600 817 600 q 650 557 692 600 q 607 454 607 515 q 576 363 607 404 q 498 307 546 322 l 766 307 l 768 307 q 867 257 827 301 q 907 154 907 213 z "},"a":{"ha":920,"x_min":0,"x_max":907,"o":"m 754 607 q 862 562 817 607 q 907 454 907 517 l 907 154 q 862 45 907 90 q 754 0 817 0 q 657 34 699 0 q 604 121 614 68 q 550 34 593 68 q 454 0 508 0 q 357 34 399 0 q 304 121 315 68 q 250 34 293 68 q 154 0 208 0 q 45 45 90 0 q 0 154 0 90 l 0 454 q 45 562 0 517 q 154 607 90 607 q 257 650 214 607 q 300 754 300 692 q 345 862 300 817 q 454 907 391 907 q 562 862 517 907 q 607 754 607 817 q 650 650 607 692 q 754 607 692 607 m 600 199 l 600 454 q 557 557 600 515 q 454 600 515 600 q 350 557 393 600 q 307 454 307 515 l 307 199 q 363 277 322 246 q 454 307 404 307 q 545 277 505 307 q 600 199 585 246 z "},"b":{"ha":920,"x_min":0,"x_max":907,"o":"m 121 304 q 34 357 68 315 q 0 454 0 399 l 0 754 q 45 862 0 817 q 154 907 90 907 q 262 862 216 907 q 307 754 307 817 l 307 498 q 363 576 322 546 q 454 607 404 607 q 550 573 508 607 q 604 486 593 538 q 657 573 614 538 q 754 607 699 607 q 862 562 817 607 q 907 454 907 517 q 862 345 907 391 q 754 300 817 300 q 650 257 692 300 q 607 154 607 214 q 562 45 607 90 q 454 0 517 0 q 357 34 399 0 q 304 121 315 68 q 250 34 293 68 q 154 0 208 0 q 45 45 90 0 q 0 154 0 90 q 34 250 0 208 q 121 304 68 293 m 186 304 q 262 262 230 294 q 304 186 294 230 q 345 262 313 229 q 421 304 377 294 q 345 345 377 313 q 304 421 313 377 q 262 345 294 377 q 186 304 229 313 z "},"c":{"ha":920,"x_min":0,"x_max":907,"o":"m 907 154 q 862 45 907 90 q 754 0 817 0 l 454 0 q 345 45 391 0 q 300 154 300 90 q 257 257 300 214 q 154 300 214 300 q 45 345 90 300 q 0 454 0 391 q 45 562 0 517 q 154 607 90 607 q 257 650 214 607 q 300 754 300 692 q 345 862 300 817 q 454 907 391 907 l 754 907 q 862 862 817 907 q 907 754 907 817 q 862 645 907 690 q 754 600 817 600 l 454 600 q 350 557 393 600 q 307 454 307 515 q 350 350 307 393 q 454 307 393 307 l 754 307 q 862 262 817 307 q 907 154 907 216 z "},"d":{"ha":920,"x_min":0,"x_max":907,"o":"m 907 454 q 872 357 907 399 q 786 304 838 315 q 872 250 838 293 q 907 154 907 208 q 862 45 907 90 q 754 0 817 0 q 657 34 699 0 q 604 121 614 68 q 550 34 593 68 q 454 0 508 0 q 345 45 391 0 q 300 154 300 90 q 257 257 300 214 q 154 300 214 300 q 45 345 90 300 q 0 454 0 391 q 45 562 0 517 q 154 607 90 607 q 250 573 208 607 q 304 486 293 538 q 357 573 315 538 q 454 607 399 607 q 545 576 505 607 q 600 498 585 546 l 600 754 q 645 862 600 817 q 754 907 690 907 q 862 862 817 907 q 907 754 907 817 l 907 454 m 604 186 q 645 262 613 229 q 721 304 677 294 q 645 345 677 313 q 604 421 613 377 q 562 345 594 377 q 486 304 530 313 q 562 262 530 294 q 604 186 594 230 z "},"e":{"ha":920,"x_min":0,"x_max":907,"o":"m 907 154 q 862 45 907 90 q 754 0 817 0 l 454 0 q 357 34 399 0 q 304 121 315 68 q 250 34 293 68 q 154 0 208 0 q 45 45 90 0 q 0 154 0 90 q 45 262 0 217 q 154 307 91 307 q 257 350 214 307 q 300 454 300 393 q 257 557 300 515 q 154 600 214 600 q 45 645 90 600 q 0 754 0 690 q 45 862 0 817 q 154 907 90 907 q 250 872 208 907 q 304 786 293 838 q 357 872 315 838 q 453 907 399 907 l 753 907 q 862 862 817 907 q 907 754 907 817 q 862 645 907 690 q 754 600 817 600 l 498 600 q 576 545 546 585 q 607 454 607 505 q 576 363 607 404 q 498 307 546 322 l 754 307 q 862 262 817 307 q 907 154 907 216 z "},"f":{"ha":920,"x_min":0,"x_max":907,"o":"m 907 754 q 862 645 907 690 q 754 600 817 600 l 498 600 q 576 545 546 585 q 607 454 607 505 q 562 345 607 391 q 454 300 517 300 q 350 257 393 300 q 307 154 307 214 q 262 45 307 91 q 154 0 217 0 q 45 45 90 0 q 0 154 0 90 q 45 262 0 217 q 154 307 91 307 q 257 350 214 307 q 300 454 300 393 q 257 557 300 515 q 154 600 214 600 q 45 645 90 600 q 0 754 0 690 q 45 862 0 817 q 154 907 90 907 q 250 872 208 907 q 302 786 292 838 q 357 872 314 838 q 453 907 399 907 l 753 907 q 862 862 817 907 q 907 754 907 817 z "},"g":{"ha":920,"x_min":0,"x_max":907,"o":"m 907 454 q 872 357 907 399 q 786 304 838 315 q 872 250 838 293 q 907 154 907 208 q 862 45 907 90 q 754 0 817 0 l 454 0 q 345 45 391 0 q 300 154 300 90 q 257 257 300 214 q 154 300 214 300 q 45 345 90 300 q 0 454 0 391 q 45 562 0 517 q 154 607 90 607 q 257 650 214 607 q 300 754 300 692 q 345 862 300 817 q 453 907 391 907 l 753 907 l 754 907 q 862 862 817 907 q 907 754 907 817 q 872 657 907 699 q 786 604 838 614 q 872 550 838 593 q 907 454 907 508 m 304 486 q 302 488 302 486 q 304 486 302 486 m 600 454 q 630 545 600 505 q 708 600 661 585 l 454 600 q 350 557 393 600 q 307 454 307 515 q 350 350 307 393 q 454 307 393 307 q 557 350 515 307 q 600 454 600 393 z "},"h":{"ha":907,"x_min":0,"x_max":907,"o":"m 907 754 l 907 154 q 862 45 907 90 q 754 0 817 0 q 645 45 690 0 q 600 154 600 90 l 600 408 q 545 330 585 361 q 453 300 504 300 q 362 330 403 300 q 307 408 322 361 l 307 153 q 262 45 307 90 q 154 0 216 0 q 45 45 90 0 q 0 154 0 90 l 0 754 q 45 862 0 817 q 154 907 90 907 q 262 862 216 907 q 307 754 307 817 l 307 498 q 363 576 322 546 q 454 607 404 607 q 545 576 505 607 q 600 498 585 546 l 600 754 q 645 862 600 817 q 754 907 690 907 q 862 862 817 907 q 907 754 907 817 z "},"i":{"ha":321,"x_min":0,"x_max":307,"o":"m 307 754 l 307 154 q 262 45 307 91 q 154 0 217 0 q 45 45 90 0 q 0 154 0 90 l 0 754 q 45 862 0 817 q 154 907 90 907 q 262 862 216 907 q 307 754 307 817 z "},"j":{"ha":920,"x_min":0,"x_max":907,"o":"m 907 754 l 907 454 q 862 345 907 391 q 754 300 817 300 q 650 257 692 300 q 607 154 607 214 q 562 45 607 90 q 454 0 517 0 q 345 45 391 0 q 300 154 300 90 q 257 257 300 214 q 154 300 214 300 q 45 345 90 300 q 0 454 0 391 q 45 562 0 517 q 154 607 90 607 q 262 562 216 607 q 307 454 307 517 q 350 350 307 393 q 454 307 393 307 q 557 350 515 307 q 600 454 600 393 l 600 754 q 645 862 600 817 q 754 907 690 907 q 862 862 817 907 q 907 754 907 817 z "},"k":{"ha":920,"x_min":0,"x_max":907,"o":"m 907 154 q 862 45 907 90 q 754 0 817 0 q 645 45 690 0 q 600 154 600 90 q 557 257 600 214 q 454 300 515 300 q 363 330 404 300 q 307 408 322 361 l 307 153 q 262 45 307 90 q 154 0 216 0 q 45 45 90 0 q 0 154 0 90 l 0 754 q 45 862 0 817 q 154 907 90 907 q 262 862 216 907 q 307 754 307 817 l 307 498 q 363 576 322 546 q 454 607 404 607 q 557 650 515 607 q 600 754 600 692 q 645 862 600 817 q 754 907 690 907 q 862 862 817 907 q 907 754 907 817 q 862 645 907 690 q 754 600 817 600 q 650 557 692 600 q 607 454 607 515 q 650 350 607 393 q 754 307 692 307 q 862 262 817 307 q 907 154 907 216 z "},"l":{"ha":920,"x_min":0,"x_max":907,"o":"m 907 154 q 862 45 907 90 q 754 0 817 0 l 454 0 q 345 45 391 0 q 300 154 300 90 q 257 257 300 214 q 154 300 214 300 q 45 345 90 300 q 0 454 0 391 l 0 754 q 45 862 0 817 q 154 907 90 907 q 262 862 216 907 q 307 754 307 817 l 307 454 q 350 350 307 393 q 454 307 393 307 l 754 307 q 862 262 817 307 q 907 154 907 216 z "},"m":{"ha":920,"x_min":0,"x_max":907,"o":"m 907 454 l 907 154 q 862 45 907 90 q 754 0 817 0 q 645 45 690 0 q 600 154 600 90 l 600 408 q 545 330 585 361 q 453 300 504 300 q 362 330 403 300 q 307 408 322 361 l 307 153 q 262 45 307 90 q 154 0 216 0 q 45 45 90 0 q 0 154 0 90 l 0 454 q 34 550 0 508 q 121 604 68 593 q 34 657 68 614 q 0 754 0 699 q 45 862 0 817 q 154 907 90 907 q 262 862 216 907 q 307 754 307 817 q 350 650 307 692 q 454 607 393 607 q 557 650 515 607 q 600 754 600 692 q 645 862 600 817 q 754 907 690 907 q 862 862 817 907 q 907 754 907 817 q 872 657 907 699 q 786 604 838 614 q 872 550 838 593 q 907 454 907 508 z "},"n":{"ha":920,"x_min":0,"x_max":907,"o":"m 907 454 l 907 154 q 862 45 907 90 q 754 0 817 0 q 645 45 690 0 q 600 154 600 90 l 600 454 q 557 557 600 515 q 454 600 515 600 q 350 557 393 600 q 307 454 307 515 l 307 154 q 262 45 307 91 q 154 0 217 0 q 45 45 90 0 q 0 154 0 90 l 0 454 q 34 550 0 508 q 121 604 68 593 q 34 657 68 614 q 0 754 0 699 q 45 862 0 817 q 154 907 90 907 l 454 907 q 562 862 517 907 q 607 754 607 817 q 650 650 607 692 q 754 607 692 607 q 862 562 817 607 q 907 454 907 517 z "},"o":{"ha":920,"x_min":0,"x_max":907,"o":"m 786 604 q 872 550 838 593 q 907 454 907 508 q 862 345 907 391 q 754 300 817 300 q 650 257 692 300 q 607 154 607 214 q 562 45 607 90 q 454 0 517 0 l 154 0 q 45 45 90 0 q 0 154 0 90 q 34 250 0 208 q 121 304 68 293 q 34 357 68 315 q 0 454 0 399 q 45 562 0 517 q 154 607 90 607 q 257 650 214 607 q 300 754 300 692 q 345 862 300 817 q 454 907 391 907 l 754 907 q 862 862 817 907 q 907 754 907 817 q 872 657 907 699 q 786 604 838 614 m 600 454 q 630 545 600 505 q 708 600 661 585 l 454 600 q 350 557 393 600 q 307 454 307 515 q 277 363 307 404 q 199 307 246 322 l 454 307 q 557 350 515 307 q 600 454 600 393 z "},"p":{"ha":920,"x_min":0,"x_max":907,"o":"m 0 454 q 34 550 0 508 q 121 604 68 593 q 34 657 68 614 q 0 754 0 699 q 45 862 0 817 q 154 907 90 907 q 250 872 208 907 q 304 786 293 838 q 357 872 315 838 q 454 907 399 907 q 562 862 517 907 q 607 754 607 817 q 650 650 607 692 q 754 607 692 607 q 862 562 817 607 q 907 454 907 517 q 862 345 907 391 q 754 300 817 300 q 657 334 699 300 q 604 421 614 369 q 550 334 593 369 q 454 300 508 300 q 363 330 404 300 q 307 408 322 361 l 307 154 q 262 45 307 91 q 154 0 217 0 q 45 45 90 0 q 0 154 0 90 l 0 454 m 304 721 q 262 645 294 677 q 186 603 230 613 q 262 562 229 594 q 304 486 294 530 q 345 562 313 530 q 421 603 377 594 q 345 645 377 613 q 304 721 313 677 z "},"q":{"ha":920,"x_min":0,"x_max":907,"o":"m 907 454 q 872 357 907 399 q 786 304 838 315 q 872 250 838 293 q 907 154 907 208 q 862 45 907 90 q 754 0 817 0 q 657 34 699 0 q 604 121 614 68 q 550 34 593 68 q 454 0 508 0 l 154 0 q 45 45 90 0 q 0 154 0 90 q 34 250 0 208 q 121 304 68 293 q 34 357 68 315 q 0 454 0 399 q 45 562 0 517 q 154 607 90 607 q 257 650 214 607 q 300 754 300 692 q 345 862 300 817 q 454 907 391 907 l 754 907 q 862 862 817 907 q 907 754 907 817 q 872 657 907 699 q 786 604 838 614 q 872 550 838 593 q 907 454 907 508 m 600 454 q 630 545 600 505 q 708 600 661 585 l 454 600 q 350 557 393 600 q 307 454 307 515 q 277 363 307 404 q 199 307 246 322 l 454 307 q 557 350 515 307 q 600 454 600 393 z "},"r":{"ha":920,"x_min":0,"x_max":907,"o":"m 907 754 q 862 645 907 690 q 754 600 817 600 l 454 600 q 350 557 393 600 q 307 454 307 515 l 307 154 q 262 45 307 91 q 154 0 217 0 q 45 45 90 0 q 0 154 0 90 l 0 454 q 45 562 0 517 q 154 607 90 607 q 257 650 214 607 q 300 754 300 692 q 345 862 300 817 q 454 907 391 907 l 754 907 q 862 862 817 907 q 907 754 907 817 z "},"s":{"ha":920,"x_min":0,"x_max":907,"o":"m 907 154 q 862 45 907 90 q 754 0 817 0 q 657 34 699 0 q 604 121 614 68 q 550 34 593 68 q 454 0 508 0 l 154 0 q 45 45 90 0 q 0 154 0 90 q 45 262 0 217 q 154 307 91 307 l 408 307 q 330 363 361 322 q 300 454 300 404 q 257 557 300 515 q 154 600 214 600 q 45 645 90 600 q 0 754 0 690 q 45 862 0 817 q 154 907 90 907 q 250 872 208 907 q 302 786 292 838 q 357 872 314 838 q 453 907 399 907 l 753 907 q 862 862 817 907 q 907 754 907 817 q 862 645 907 690 q 754 600 817 600 l 498 600 q 576 545 546 585 q 607 454 607 505 q 573 357 607 399 q 486 304 538 315 q 562 262 530 294 q 604 186 594 230 q 657 273 614 238 q 754 307 699 307 q 862 262 817 307 q 907 154 907 216 z "},"t":{"ha":920,"x_min":0,"x_max":907,"o":"m 907 754 q 863 647 907 692 q 758 600 820 602 l 498 600 q 576 545 546 585 q 607 454 607 505 l 607 154 q 562 45 607 90 q 454 0 517 0 q 345 45 391 0 q 300 154 300 90 l 300 454 q 330 545 300 505 q 408 600 361 585 l 153 600 q 45 645 90 600 q 0 754 0 690 q 45 862 0 817 q 154 907 90 907 l 758 907 q 863 860 820 905 q 907 754 907 816 z "},"u":{"ha":920,"x_min":0,"x_max":907,"o":"m 786 304 q 872 250 838 293 q 907 154 907 208 q 862 45 907 90 q 754 0 817 0 l 454 0 q 357 34 399 0 q 302 121 314 68 q 250 34 292 68 q 153 0 208 0 q 45 45 90 0 q 0 154 0 90 q 34 250 0 208 q 121 304 68 293 q 34 357 68 315 q 0 454 0 399 l 0 754 q 45 862 0 817 q 154 907 90 907 q 262 862 216 907 q 307 754 307 817 l 307 454 q 350 350 307 393 q 454 307 393 307 q 557 350 515 307 q 600 454 600 393 l 600 754 q 645 862 600 817 q 754 907 690 907 q 862 862 817 907 q 907 754 907 817 l 907 454 q 872 357 907 399 q 786 304 838 315 z "},"v":{"ha":920,"x_min":0,"x_max":907,"o":"m 907 754 l 907 454 q 862 345 907 391 q 754 300 817 300 q 650 257 692 300 q 607 154 607 214 q 562 45 607 90 q 454 0 517 0 q 345 45 391 0 q 300 154 300 90 q 257 257 300 214 q 154 300 214 300 q 45 345 90 300 q 0 454 0 391 l 0 754 q 45 862 0 817 q 154 907 90 907 q 262 862 216 907 q 307 754 307 817 l 307 454 q 350 350 307 393 q 454 307 393 307 q 557 350 515 307 q 600 454 600 393 l 600 754 q 645 862 600 817 q 754 907 690 907 q 862 862 817 907 q 907 754 907 817 z "},"w":{"ha":920,"x_min":0,"x_max":907,"o":"m 786 304 q 872 250 838 293 q 907 154 907 208 q 862 45 907 90 q 754 0 817 0 q 645 45 690 0 q 600 154 600 90 q 557 257 600 214 q 454 300 515 300 q 350 257 393 300 q 307 154 307 214 q 262 45 307 91 q 154 0 217 0 q 45 45 90 0 q 0 154 0 90 q 34 250 0 208 q 121 304 68 293 q 34 357 68 315 q 0 454 0 399 l 0 754 q 45 862 0 817 q 154 907 90 907 q 262 862 216 907 q 307 754 307 817 l 307 498 q 363 576 322 546 q 454 607 404 607 q 545 576 505 607 q 600 498 585 546 l 600 754 q 645 862 600 817 q 754 907 690 907 q 862 862 817 907 q 907 754 907 817 l 907 454 q 872 357 907 399 q 786 304 838 315 z "},"x":{"ha":920,"x_min":-3,"x_max":909,"o":"m 865 265 q 887 243 865 265 q 909 157 909 220 q 865 48 909 93 q 757 3 821 3 q 648 48 693 3 q 603 157 603 93 q 560 260 603 217 q 457 302 517 302 q 361 267 401 302 q 313 179 320 232 q 313 168 313 176 q 314 157 314 160 q 311 132 314 149 q 269 48 304 85 q 187 3 234 12 q 93 14 138 -7 q 22 77 47 34 q 1 169 -3 119 q 36 257 5 218 q 100 303 62 288 q 179 313 139 318 q 268 361 233 321 q 302 457 302 402 q 260 560 302 517 q 157 603 217 603 q 48 648 93 603 q 3 757 3 693 q 48 865 3 821 q 157 909 93 909 q 265 865 220 909 q 310 757 310 821 q 353 653 310 696 q 457 610 397 610 q 560 653 517 610 q 603 757 603 696 q 648 865 603 821 q 757 909 693 909 q 865 865 821 909 q 909 757 909 821 q 865 648 909 693 q 757 603 821 603 q 653 560 696 603 q 610 457 610 517 q 653 353 610 397 q 757 310 696 310 q 865 265 821 310 z "},"y":{"ha":920,"x_min":0,"x_max":907,"o":"m 907 754 q 862 645 907 690 q 754 600 817 600 q 650 557 692 600 q 607 454 607 515 q 573 357 607 399 q 486 304 538 315 q 573 250 538 293 q 607 154 607 208 q 562 45 607 90 q 454 0 517 0 l 154 0 q 45 45 90 0 q 0 154 0 90 q 45 262 0 217 q 154 307 91 307 q 250 273 208 307 q 304 186 293 238 q 345 262 313 229 q 421 304 377 294 q 334 357 369 315 q 300 454 300 399 q 257 557 300 515 q 154 600 214 600 q 45 645 90 600 q 0 754 0 690 q 45 862 0 817 q 154 907 90 907 q 262 862 216 907 q 307 754 307 817 q 350 650 307 692 q 454 607 393 607 q 557 650 515 607 q 600 754 600 692 q 645 862 600 817 q 754 907 690 907 q 862 862 817 907 q 907 754 907 817 z "},"z":{"ha":920,"x_min":0,"x_max":907,"o":"m 907 154 q 867 50 907 94 q 768 1 827 7 q 765 0 768 0 l 465 0 l 464 0 l 453 0 q 357 34 399 0 q 302 121 314 68 q 250 34 292 68 q 153 0 208 0 q 45 45 90 0 q 0 154 0 90 q 45 262 0 217 q 154 307 91 307 q 250 273 208 307 q 304 186 293 238 q 345 262 313 229 q 421 304 377 294 q 334 357 369 315 q 300 454 300 399 q 330 545 300 505 q 408 600 361 585 l 154 600 q 45 645 90 600 q 0 754 0 690 q 45 862 0 817 q 154 907 90 907 l 454 907 q 550 872 508 907 q 604 786 593 838 q 657 872 614 838 q 754 907 699 907 q 862 862 817 907 q 907 754 907 817 q 862 645 907 690 q 754 600 817 600 q 650 557 692 600 q 607 454 607 515 q 576 363 607 404 q 498 307 546 322 l 766 307 l 768 307 q 867 257 827 301 q 907 154 907 213 z "},"Ą":{"ha":920,"x_min":0,"x_max":907,"o":"m 907 -447 l 907 -897 q 904 -900 907 -900 l 4 -900 q 0 -897 0 -900 l 0 3 q 4 7 0 7 l 454 7 q 457 3 457 7 q 454 0 457 0 q 280 -36 363 0 q 137 -131 197 -71 q 42 -274 77 -191 q 7 -447 7 -357 q 42 -620 7 -537 q 137 -762 77 -703 q 280 -858 197 -822 q 454 -893 363 -893 q 678 -833 575 -893 q 840 -670 781 -773 q 900 -447 900 -568 q 904 -443 900 -443 q 907 -447 907 -443 m 754 607 q 862 562 817 607 q 907 454 907 517 l 907 154 q 862 45 907 90 q 754 0 817 0 q 657 34 699 0 q 604 121 614 68 q 550 34 593 68 q 454 0 508 0 q 357 34 399 0 q 304 121 315 68 q 250 34 293 68 q 154 0 208 0 q 45 45 90 0 q 0 154 0 90 l 0 454 q 45 562 0 517 q 154 607 90 607 q 257 650 214 607 q 300 754 300 692 q 345 862 300 817 q 454 907 391 907 q 562 862 517 907 q 607 754 607 817 q 650 650 607 692 q 754 607 692 607 m 600 199 l 600 454 q 557 557 600 515 q 454 600 515 600 q 350 557 393 600 q 307 454 307 515 l 307 199 q 363 277 322 246 q 454 307 404 307 q 545 277 505 307 q 600 199 585 246 z "},"ą":{"ha":920,"x_min":0,"x_max":907,"o":"m 754 607 q 862 562 817 607 q 907 454 907 517 l 907 154 q 862 45 907 90 q 754 0 817 0 q 657 34 699 0 q 604 121 614 68 q 550 34 593 68 q 454 0 508 0 q 357 34 399 0 q 304 121 315 68 q 250 34 293 68 q 154 0 208 0 q 45 45 90 0 q 0 154 0 90 l 0 454 q 45 562 0 517 q 154 607 90 607 q 257 650 214 607 q 300 754 300 692 q 345 862 300 817 q 454 907 391 907 q 562 862 517 907 q 607 754 607 817 q 650 650 607 692 q 754 607 692 607 m 600 199 l 600 454 q 557 557 600 515 q 454 600 515 600 q 350 557 393 600 q 307 454 307 515 l 307 199 q 363 277 322 246 q 454 307 404 307 q 545 277 505 307 q 600 199 585 246 m 907 -447 l 907 -897 q 904 -900 907 -900 l 4 -900 q 0 -897 0 -900 l 0 3 q 4 7 0 7 l 454 7 q 457 3 457 7 q 454 0 457 0 q 280 -36 363 0 q 137 -131 197 -71 q 42 -274 77 -191 q 7 -447 7 -357 q 42 -620 7 -537 q 137 -762 77 -703 q 280 -858 197 -822 q 454 -893 363 -893 q 678 -833 575 -893 q 840 -670 781 -773 q 900 -447 900 -568 q 904 -443 900 -443 q 907 -447 907 -443 m 754 607 q 862 562 817 607 q 907 454 907 517 l 907 154 q 862 45 907 90 q 754 0 817 0 q 657 34 699 0 q 604 121 614 68 q 550 34 593 68 q 454 0 508 0 q 357 34 399 0 q 304 121 315 68 q 250 34 293 68 q 154 0 208 0 q 45 45 90 0 q 0 154 0 90 l 0 454 q 45 562 0 517 q 154 607 90 607 q 257 650 214 607 q 300 754 300 692 q 345 862 300 817 q 454 907 391 907 q 562 862 517 907 q 607 754 607 817 q 650 650 607 692 q 754 607 692 607 m 600 199 l 600 454 q 557 557 600 515 q 454 600 515 600 q 350 557 393 600 q 307 454 307 515 l 307 199 q 363 277 322 246 q 454 307 404 307 q 545 277 505 307 q 600 199 585 246 z "},"Č":{"ha":920,"x_min":0,"x_max":907,"o":"m 907 1354 q 903 1350 907 1350 q 679 1290 782 1350 q 517 1127 576 1230 q 457 904 457 1025 q 453 900 457 900 q 450 904 450 900 q 390 1127 450 1025 q 227 1290 330 1230 q 3 1350 123 1350 q 0 1354 0 1350 q 3 1357 0 1357 q 227 1417 123 1357 q 390 1580 330 1477 q 450 1804 450 1683 q 453 1807 450 1807 q 457 1804 457 1807 q 492 1631 457 1714 q 587 1488 528 1548 q 730 1393 647 1428 q 903 1357 812 1357 q 907 1354 907 1357 m 907 154 q 862 45 907 90 q 754 0 817 0 l 454 0 q 345 45 391 0 q 300 154 300 90 q 257 257 300 214 q 154 300 214 300 q 45 345 90 300 q 0 454 0 391 q 45 562 0 517 q 154 607 90 607 q 257 650 214 607 q 300 754 300 692 q 345 862 300 817 q 454 907 391 907 l 754 907 q 862 862 817 907 q 907 754 907 817 q 862 645 907 690 q 754 600 817 600 l 454 600 q 350 557 393 600 q 307 454 307 515 q 350 350 307 393 q 454 307 393 307 l 754 307 q 862 262 817 307 q 907 154 907 216 z "},"č":{"ha":920,"x_min":0,"x_max":907,"o":"m 907 154 q 862 45 907 90 q 754 0 817 0 l 454 0 q 345 45 391 0 q 300 154 300 90 q 257 257 300 214 q 154 300 214 300 q 45 345 90 300 q 0 454 0 391 q 45 562 0 517 q 154 607 90 607 q 257 650 214 607 q 300 754 300 692 q 345 862 300 817 q 454 907 391 907 l 754 907 q 862 862 817 907 q 907 754 907 817 q 862 645 907 690 q 754 600 817 600 l 454 600 q 350 557 393 600 q 307 454 307 515 q 350 350 307 393 q 454 307 393 307 l 754 307 q 862 262 817 307 q 907 154 907 216 m 907 1354 q 903 1350 907 1350 q 679 1290 782 1350 q 517 1127 576 1230 q 457 904 457 1025 q 453 900 457 900 q 450 904 450 900 q 390 1127 450 1025 q 227 1290 330 1230 q 3 1350 123 1350 q 0 1354 0 1350 q 3 1357 0 1357 q 227 1417 123 1357 q 390 1580 330 1477 q 450 1804 450 1683 q 453 1807 450 1807 q 457 1804 457 1807 q 492 1631 457 1714 q 587 1488 528 1548 q 730 1393 647 1428 q 903 1357 812 1357 q 907 1354 907 1357 m 907 154 q 862 45 907 90 q 754 0 817 0 l 454 0 q 345 45 391 0 q 300 154 300 90 q 257 257 300 214 q 154 300 214 300 q 45 345 90 300 q 0 454 0 391 q 45 562 0 517 q 154 607 90 607 q 257 650 214 607 q 300 754 300 692 q 345 862 300 817 q 454 907 391 907 l 754 907 q 862 862 817 907 q 907 754 907 817 q 862 645 907 690 q 754 600 817 600 l 454 600 q 350 557 393 600 q 307 454 307 515 q 350 350 307 393 q 454 307 393 307 l 754 307 q 862 262 817 307 q 907 154 907 216 z "},"Ė":{"ha":920,"x_min":0,"x_max":907,"o":"m 907 1354 q 872 1180 907 1263 q 774 1034 838 1097 q 628 935 710 969 q 454 900 545 900 q 280 935 363 900 q 134 1034 197 969 q 35 1180 69 1097 q 0 1354 0 1263 q 35 1528 0 1445 q 134 1674 69 1610 q 279 1772 197 1738 q 453 1807 362 1807 q 627 1772 545 1807 q 774 1674 710 1738 q 872 1528 838 1611 q 907 1354 907 1445 m 907 154 q 862 45 907 90 q 754 0 817 0 l 454 0 q 357 34 399 0 q 304 121 315 68 q 250 34 293 68 q 154 0 208 0 q 45 45 90 0 q 0 154 0 90 q 45 262 0 217 q 154 307 91 307 q 257 350 214 307 q 300 454 300 393 q 257 557 300 515 q 154 600 214 600 q 45 645 90 600 q 0 754 0 690 q 45 862 0 817 q 154 907 90 907 q 250 872 208 907 q 304 786 293 838 q 357 872 315 838 q 453 907 399 907 l 753 907 q 862 862 817 907 q 907 754 907 817 q 862 645 907 690 q 754 600 817 600 l 498 600 q 576 545 546 585 q 607 454 607 505 q 576 363 607 404 q 498 307 546 322 l 754 307 q 862 262 817 307 q 907 154 907 216 z "},"ė":{"ha":920,"x_min":0,"x_max":907,"o":"m 907 154 q 862 45 907 90 q 754 0 817 0 l 454 0 q 357 34 399 0 q 304 121 315 68 q 250 34 293 68 q 154 0 208 0 q 45 45 90 0 q 0 154 0 90 q 45 262 0 217 q 154 307 91 307 q 257 350 214 307 q 300 454 300 393 q 257 557 300 515 q 154 600 214 600 q 45 645 90 600 q 0 754 0 690 q 45 862 0 817 q 154 907 90 907 q 250 872 208 907 q 304 786 293 838 q 357 872 315 838 q 453 907 399 907 l 753 907 q 862 862 817 907 q 907 754 907 817 q 862 645 907 690 q 754 600 817 600 l 498 600 q 576 545 546 585 q 607 454 607 505 q 576 363 607 404 q 498 307 546 322 l 754 307 q 862 262 817 307 q 907 154 907 216 m 907 1354 q 872 1180 907 1263 q 774 1034 838 1097 q 628 935 710 969 q 454 900 545 900 q 280 935 363 900 q 134 1034 197 969 q 35 1180 69 1097 q 0 1354 0 1263 q 35 1528 0 1445 q 134 1674 69 1610 q 279 1772 197 1738 q 453 1807 362 1807 q 627 1772 545 1807 q 774 1674 710 1738 q 872 1528 838 1611 q 907 1354 907 1445 m 907 154 q 862 45 907 90 q 754 0 817 0 l 454 0 q 357 34 399 0 q 304 121 315 68 q 250 34 293 68 q 154 0 208 0 q 45 45 90 0 q 0 154 0 90 q 45 262 0 217 q 154 307 91 307 q 257 350 214 307 q 300 454 300 393 q 257 557 300 515 q 154 600 214 600 q 45 645 90 600 q 0 754 0 690 q 45 862 0 817 q 154 907 90 907 q 250 872 208 907 q 304 786 293 838 q 357 872 315 838 q 453 907 399 907 l 753 907 q 862 862 817 907 q 907 754 907 817 q 862 645 907 690 q 754 600 817 600 l 498 600 q 576 545 546 585 q 607 454 607 505 q 576 363 607 404 q 498 307 546 322 l 754 307 q 862 262 817 307 q 907 154 907 216 z "},"Ę":{"ha":920,"x_min":0,"x_max":907,"o":"m 907 154 q 862 45 907 90 q 754 0 817 0 l 454 0 q 357 34 399 0 q 304 121 315 68 q 250 34 293 68 q 154 0 208 0 q 45 45 90 0 q 0 154 0 90 q 45 262 0 217 q 154 307 91 307 q 257 350 214 307 q 300 454 300 393 q 257 557 300 515 q 154 600 214 600 q 45 645 90 600 q 0 754 0 690 q 45 862 0 817 q 154 907 90 907 q 250 872 208 907 q 304 786 293 838 q 357 872 315 838 q 453 907 399 907 l 753 907 q 862 862 817 907 q 907 754 907 817 q 862 645 907 690 q 754 600 817 600 l 498 600 q 576 545 546 585 q 607 454 607 505 q 576 363 607 404 q 498 307 546 322 l 754 307 q 862 262 817 307 q 907 154 907 216 m 907 -447 l 907 -897 q 904 -900 907 -900 l 4 -900 q 0 -897 0 -900 l 0 3 q 4 7 0 7 l 454 7 q 457 3 457 7 q 454 0 457 0 q 280 -36 363 0 q 137 -131 197 -71 q 42 -274 77 -191 q 7 -447 7 -357 q 42 -620 7 -537 q 137 -762 77 -703 q 280 -858 197 -822 q 454 -893 363 -893 q 678 -833 575 -893 q 840 -670 781 -773 q 900 -447 900 -568 q 904 -443 900 -443 q 907 -447 907 -443 m 907 154 q 862 45 907 90 q 754 0 817 0 l 454 0 q 357 34 399 0 q 304 121 315 68 q 250 34 293 68 q 154 0 208 0 q 45 45 90 0 q 0 154 0 90 q 45 262 0 217 q 154 307 91 307 q 257 350 214 307 q 300 454 300 393 q 257 557 300 515 q 154 600 214 600 q 45 645 90 600 q 0 754 0 690 q 45 862 0 817 q 154 907 90 907 q 250 872 208 907 q 304 786 293 838 q 357 872 315 838 q 453 907 399 907 l 753 907 q 862 862 817 907 q 907 754 907 817 q 862 645 907 690 q 754 600 817 600 l 498 600 q 576 545 546 585 q 607 454 607 505 q 576 363 607 404 q 498 307 546 322 l 754 307 q 862 262 817 307 q 907 154 907 216 z "},"ę":{"ha":920,"x_min":0,"x_max":907,"o":"m 907 154 q 862 45 907 90 q 754 0 817 0 l 454 0 q 357 34 399 0 q 304 121 315 68 q 250 34 293 68 q 154 0 208 0 q 45 45 90 0 q 0 154 0 90 q 45 262 0 217 q 154 307 91 307 q 257 350 214 307 q 300 454 300 393 q 257 557 300 515 q 154 600 214 600 q 45 645 90 600 q 0 754 0 690 q 45 862 0 817 q 154 907 90 907 q 250 872 208 907 q 304 786 293 838 q 357 872 315 838 q 453 907 399 907 l 753 907 q 862 862 817 907 q 907 754 907 817 q 862 645 907 690 q 754 600 817 600 l 498 600 q 576 545 546 585 q 607 454 607 505 q 576 363 607 404 q 498 307 546 322 l 754 307 q 862 262 817 307 q 907 154 907 216 m 907 -447 l 907 -897 q 904 -900 907 -900 l 4 -900 q 0 -897 0 -900 l 0 3 q 4 7 0 7 l 454 7 q 457 3 457 7 q 454 0 457 0 q 280 -36 363 0 q 137 -131 197 -71 q 42 -274 77 -191 q 7 -447 7 -357 q 42 -620 7 -537 q 137 -762 77 -703 q 280 -858 197 -822 q 454 -893 363 -893 q 678 -833 575 -893 q 840 -670 781 -773 q 900 -447 900 -568 q 904 -443 900 -443 q 907 -447 907 -443 m 907 154 q 862 45 907 90 q 754 0 817 0 l 454 0 q 357 34 399 0 q 304 121 315 68 q 250 34 293 68 q 154 0 208 0 q 45 45 90 0 q 0 154 0 90 q 45 262 0 217 q 154 307 91 307 q 257 350 214 307 q 300 454 300 393 q 257 557 300 515 q 154 600 214 600 q 45 645 90 600 q 0 754 0 690 q 45 862 0 817 q 154 907 90 907 q 250 872 208 907 q 304 786 293 838 q 357 872 315 838 q 453 907 399 907 l 753 907 q 862 862 817 907 q 907 754 907 817 q 862 645 907 690 q 754 600 817 600 l 498 600 q 576 545 546 585 q 607 454 607 505 q 576 363 607 404 q 498 307 546 322 l 754 307 q 862 262 817 307 q 907 154 907 216 z "},"Į":{"ha":920,"x_min":0,"x_max":907,"o":"m 907 -447 l 907 -897 q 904 -900 907 -900 l 4 -900 q 0 -897 0 -900 l 0 3 q 4 7 0 7 l 454 7 q 457 3 457 7 q 454 0 457 0 q 280 -36 363 0 q 137 -131 197 -71 q 42 -274 77 -191 q 7 -447 7 -357 q 42 -620 7 -537 q 137 -762 77 -703 q 280 -858 197 -822 q 454 -893 363 -893 q 678 -833 575 -893 q 840 -670 781 -773 q 900 -447 900 -568 q 904 -443 900 -443 q 907 -447 907 -443 m 307 754 l 307 154 q 262 45 307 91 q 154 0 217 0 q 45 45 90 0 q 0 154 0 90 l 0 754 q 45 862 0 817 q 154 907 90 907 q 262 862 216 907 q 307 754 307 817 z "},"į":{"ha":920,"x_min":0,"x_max":907,"o":"m 307 754 l 307 154 q 262 45 307 91 q 154 0 217 0 q 45 45 90 0 q 0 154 0 90 l 0 754 q 45 862 0 817 q 154 907 90 907 q 262 862 216 907 q 307 754 307 817 m 907 -447 l 907 -897 q 904 -900 907 -900 l 4 -900 q 0 -897 0 -900 l 0 3 q 4 7 0 7 l 454 7 q 457 3 457 7 q 454 0 457 0 q 280 -36 363 0 q 137 -131 197 -71 q 42 -274 77 -191 q 7 -447 7 -357 q 42 -620 7 -537 q 137 -762 77 -703 q 280 -858 197 -822 q 454 -893 363 -893 q 678 -833 575 -893 q 840 -670 781 -773 q 900 -447 900 -568 q 904 -443 900 -443 q 907 -447 907 -443 m 307 754 l 307 154 q 262 45 307 91 q 154 0 217 0 q 45 45 90 0 q 0 154 0 90 l 0 754 q 45 862 0 817 q 154 907 90 907 q 262 862 216 907 q 307 754 307 817 z "},"ŋ":{"ha":858,"x_min":0,"x_max":0,"o":""},"Š":{"ha":920,"x_min":0,"x_max":907,"o":"m 907 1354 q 903 1350 907 1350 q 679 1290 782 1350 q 517 1127 576 1230 q 457 904 457 1025 q 453 900 457 900 q 450 904 450 900 q 390 1127 450 1025 q 227 1290 330 1230 q 3 1350 123 1350 q 0 1354 0 1350 q 3 1357 0 1357 q 227 1417 123 1357 q 390 1580 330 1477 q 450 1804 450 1683 q 453 1807 450 1807 q 457 1804 457 1807 q 492 1631 457 1714 q 587 1488 528 1548 q 730 1393 647 1428 q 903 1357 812 1357 q 907 1354 907 1357 m 907 154 q 862 45 907 90 q 754 0 817 0 q 657 34 699 0 q 604 121 614 68 q 550 34 593 68 q 454 0 508 0 l 154 0 q 45 45 90 0 q 0 154 0 90 q 45 262 0 217 q 154 307 91 307 l 408 307 q 330 363 361 322 q 300 454 300 404 q 257 557 300 515 q 154 600 214 600 q 45 645 90 600 q 0 754 0 690 q 45 862 0 817 q 154 907 90 907 q 250 872 208 907 q 302 786 292 838 q 357 872 314 838 q 453 907 399 907 l 753 907 q 862 862 817 907 q 907 754 907 817 q 862 645 907 690 q 754 600 817 600 l 498 600 q 576 545 546 585 q 607 454 607 505 q 573 357 607 399 q 486 304 538 315 q 562 262 530 294 q 604 186 594 230 q 657 273 614 238 q 754 307 699 307 q 862 262 817 307 q 907 154 907 216 z "},"š":{"ha":920,"x_min":0,"x_max":907,"o":"m 907 154 q 862 45 907 90 q 754 0 817 0 q 657 34 699 0 q 604 121 614 68 q 550 34 593 68 q 454 0 508 0 l 154 0 q 45 45 90 0 q 0 154 0 90 q 45 262 0 217 q 154 307 91 307 l 408 307 q 330 363 361 322 q 300 454 300 404 q 257 557 300 515 q 154 600 214 600 q 45 645 90 600 q 0 754 0 690 q 45 862 0 817 q 154 907 90 907 q 250 872 208 907 q 302 786 292 838 q 357 872 314 838 q 453 907 399 907 l 753 907 q 862 862 817 907 q 907 754 907 817 q 862 645 907 690 q 754 600 817 600 l 498 600 q 576 545 546 585 q 607 454 607 505 q 573 357 607 399 q 486 304 538 315 q 562 262 530 294 q 604 186 594 230 q 657 273 614 238 q 754 307 699 307 q 862 262 817 307 q 907 154 907 216 m 907 1354 q 903 1350 907 1350 q 679 1290 782 1350 q 517 1127 576 1230 q 457 904 457 1025 q 453 900 457 900 q 450 904 450 900 q 390 1127 450 1025 q 227 1290 330 1230 q 3 1350 123 1350 q 0 1354 0 1350 q 3 1357 0 1357 q 227 1417 123 1357 q 390 1580 330 1477 q 450 1804 450 1683 q 453 1807 450 1807 q 457 1804 457 1807 q 492 1631 457 1714 q 587 1488 528 1548 q 730 1393 647 1428 q 903 1357 812 1357 q 907 1354 907 1357 m 907 154 q 862 45 907 90 q 754 0 817 0 q 657 34 699 0 q 604 121 614 68 q 550 34 593 68 q 454 0 508 0 l 154 0 q 45 45 90 0 q 0 154 0 90 q 45 262 0 217 q 154 307 91 307 l 408 307 q 330 363 361 322 q 300 454 300 404 q 257 557 300 515 q 154 600 214 600 q 45 645 90 600 q 0 754 0 690 q 45 862 0 817 q 154 907 90 907 q 250 872 208 907 q 302 786 292 838 q 357 872 314 838 q 453 907 399 907 l 753 907 q 862 862 817 907 q 907 754 907 817 q 862 645 907 690 q 754 600 817 600 l 498 600 q 576 545 546 585 q 607 454 607 505 q 573 357 607 399 q 486 304 538 315 q 562 262 530 294 q 604 186 594 230 q 657 273 614 238 q 754 307 699 307 q 862 262 817 307 q 907 154 907 216 z "},"Ū":{"ha":920,"x_min":0,"x_max":907,"o":"m 786 304 q 872 250 838 293 q 907 154 907 208 q 862 45 907 90 q 754 0 817 0 l 454 0 q 357 34 399 0 q 302 121 314 68 q 250 34 292 68 q 153 0 208 0 q 45 45 90 0 q 0 154 0 90 q 34 250 0 208 q 121 304 68 293 q 34 357 68 315 q 0 454 0 399 l 0 754 q 45 862 0 817 q 154 907 90 907 q 262 862 216 907 q 307 754 307 817 l 307 454 q 350 350 307 393 q 454 307 393 307 q 557 350 515 307 q 600 454 600 393 l 600 754 q 645 862 600 817 q 754 907 690 907 q 862 862 817 907 q 907 754 907 817 l 907 454 q 872 357 907 399 q 786 304 838 315 m 907 1804 l 907 904 q 903 900 907 900 l 3 900 q 0 904 0 900 l 0 1804 q 3 1807 0 1807 l 903 1807 q 907 1804 907 1807 z "},"ū":{"ha":920,"x_min":0,"x_max":907,"o":"m 786 304 q 872 250 838 293 q 907 154 907 208 q 862 45 907 90 q 754 0 817 0 l 454 0 q 357 34 399 0 q 302 121 314 68 q 250 34 292 68 q 153 0 208 0 q 45 45 90 0 q 0 154 0 90 q 34 250 0 208 q 121 304 68 293 q 34 357 68 315 q 0 454 0 399 l 0 754 q 45 862 0 817 q 154 907 90 907 q 262 862 216 907 q 307 754 307 817 l 307 454 q 350 350 307 393 q 454 307 393 307 q 557 350 515 307 q 600 454 600 393 l 600 754 q 645 862 600 817 q 754 907 690 907 q 862 862 817 907 q 907 754 907 817 l 907 454 q 872 357 907 399 q 786 304 838 315 m 907 1804 l 907 904 q 903 900 907 900 l 3 900 q 0 904 0 900 l 0 1804 q 3 1807 0 1807 l 903 1807 q 907 1804 907 1807 z "},"Ų":{"ha":920,"x_min":0,"x_max":907,"o":"m 907 -447 l 907 -897 q 904 -900 907 -900 l 4 -900 q 0 -897 0 -900 l 0 3 q 4 7 0 7 l 454 7 q 457 3 457 7 q 454 0 457 0 q 280 -36 363 0 q 137 -131 197 -71 q 42 -274 77 -191 q 7 -447 7 -357 q 42 -620 7 -537 q 137 -762 77 -703 q 280 -858 197 -822 q 454 -893 363 -893 q 678 -833 575 -893 q 840 -670 781 -773 q 900 -447 900 -568 q 904 -443 900 -443 q 907 -447 907 -443 m 786 304 q 872 250 838 293 q 907 154 907 208 q 862 45 907 90 q 754 0 817 0 l 454 0 q 357 34 399 0 q 302 121 314 68 q 250 34 292 68 q 153 0 208 0 q 45 45 90 0 q 0 154 0 90 q 34 250 0 208 q 121 304 68 293 q 34 357 68 315 q 0 454 0 399 l 0 754 q 45 862 0 817 q 154 907 90 907 q 262 862 216 907 q 307 754 307 817 l 307 454 q 350 350 307 393 q 454 307 393 307 q 557 350 515 307 q 600 454 600 393 l 600 754 q 645 862 600 817 q 754 907 690 907 q 862 862 817 907 q 907 754 907 817 l 907 454 q 872 357 907 399 q 786 304 838 315 z "},"ų":{"ha":920,"x_min":0,"x_max":907,"o":"m 907 -447 l 907 -897 q 904 -900 907 -900 l 4 -900 q 0 -897 0 -900 l 0 3 q 4 7 0 7 l 454 7 q 457 3 457 7 q 454 0 457 0 q 280 -36 363 0 q 137 -131 197 -71 q 42 -274 77 -191 q 7 -447 7 -357 q 42 -620 7 -537 q 137 -762 77 -703 q 280 -858 197 -822 q 454 -893 363 -893 q 678 -833 575 -893 q 840 -670 781 -773 q 900 -447 900 -568 q 904 -443 900 -443 q 907 -447 907 -443 m 786 304 q 872 250 838 293 q 907 154 907 208 q 862 45 907 90 q 754 0 817 0 l 454 0 q 357 34 399 0 q 302 121 314 68 q 250 34 292 68 q 153 0 208 0 q 45 45 90 0 q 0 154 0 90 q 34 250 0 208 q 121 304 68 293 q 34 357 68 315 q 0 454 0 399 l 0 754 q 45 862 0 817 q 154 907 90 907 q 262 862 216 907 q 307 754 307 817 l 307 454 q 350 350 307 393 q 454 307 393 307 q 557 350 515 307 q 600 454 600 393 l 600 754 q 645 862 600 817 q 754 907 690 907 q 862 862 817 907 q 907 754 907 817 l 907 454 q 872 357 907 399 q 786 304 838 315 z "},"Ž":{"ha":920,"x_min":0,"x_max":907,"o":"m 907 154 q 867 50 907 94 q 768 1 827 7 q 765 0 768 0 l 465 0 l 464 0 l 453 0 q 357 34 399 0 q 302 121 314 68 q 250 34 292 68 q 153 0 208 0 q 45 45 90 0 q 0 154 0 90 q 45 262 0 217 q 154 307 91 307 q 250 273 208 307 q 304 186 293 238 q 345 262 313 229 q 421 304 377 294 q 334 357 369 315 q 300 454 300 399 q 330 545 300 505 q 408 600 361 585 l 154 600 q 45 645 90 600 q 0 754 0 690 q 45 862 0 817 q 154 907 90 907 l 454 907 q 550 872 508 907 q 604 786 593 838 q 657 872 614 838 q 754 907 699 907 q 862 862 817 907 q 907 754 907 817 q 862 645 907 690 q 754 600 817 600 q 650 557 692 600 q 607 454 607 515 q 576 363 607 404 q 498 307 546 322 l 766 307 l 768 307 q 867 257 827 301 q 907 154 907 213 m 907 154 q 867 50 907 94 q 768 1 827 7 q 765 0 768 0 l 465 0 l 464 0 l 453 0 q 357 34 399 0 q 302 121 314 68 q 250 34 292 68 q 153 0 208 0 q 45 45 90 0 q 0 154 0 90 q 45 262 0 217 q 154 307 91 307 q 250 273 208 307 q 304 186 293 238 q 345 262 313 229 q 421 304 377 294 q 334 357 369 315 q 300 454 300 399 q 330 545 300 505 q 408 600 361 585 l 154 600 q 45 645 90 600 q 0 754 0 690 q 45 862 0 817 q 154 907 90 907 l 454 907 q 550 872 508 907 q 604 786 593 838 q 657 872 614 838 q 754 907 699 907 q 862 862 817 907 q 907 754 907 817 q 862 645 907 690 q 754 600 817 600 q 650 557 692 600 q 607 454 607 515 q 576 363 607 404 q 498 307 546 322 l 766 307 l 768 307 q 867 257 827 301 q 907 154 907 213 m 907 1354 q 903 1350 907 1350 q 679 1290 782 1350 q 517 1127 576 1230 q 457 904 457 1025 q 453 900 457 900 q 450 904 450 900 q 390 1127 450 1025 q 227 1290 330 1230 q 3 1350 123 1350 q 0 1354 0 1350 q 3 1357 0 1357 q 227 1417 123 1357 q 390 1580 330 1477 q 450 1804 450 1683 q 453 1807 450 1807 q 457 1804 457 1807 q 492 1631 457 1714 q 587 1488 528 1548 q 730 1393 647 1428 q 903 1357 812 1357 q 907 1354 907 1357 z "},"ž":{"ha":920,"x_min":0,"x_max":907,"o":"m 907 154 q 867 50 907 94 q 768 1 827 7 q 765 0 768 0 l 465 0 l 464 0 l 453 0 q 357 34 399 0 q 302 121 314 68 q 250 34 292 68 q 153 0 208 0 q 45 45 90 0 q 0 154 0 90 q 45 262 0 217 q 154 307 91 307 q 250 273 208 307 q 304 186 293 238 q 345 262 313 229 q 421 304 377 294 q 334 357 369 315 q 300 454 300 399 q 330 545 300 505 q 408 600 361 585 l 154 600 q 45 645 90 600 q 0 754 0 690 q 45 862 0 817 q 154 907 90 907 l 454 907 q 550 872 508 907 q 604 786 593 838 q 657 872 614 838 q 754 907 699 907 q 862 862 817 907 q 907 754 907 817 q 862 645 907 690 q 754 600 817 600 q 650 557 692 600 q 607 454 607 515 q 576 363 607 404 q 498 307 546 322 l 766 307 l 768 307 q 867 257 827 301 q 907 154 907 213 m 907 154 q 867 50 907 94 q 768 1 827 7 q 765 0 768 0 l 465 0 l 464 0 l 453 0 q 357 34 399 0 q 302 121 314 68 q 250 34 292 68 q 153 0 208 0 q 45 45 90 0 q 0 154 0 90 q 45 262 0 217 q 154 307 91 307 q 250 273 208 307 q 304 186 293 238 q 345 262 313 229 q 421 304 377 294 q 334 357 369 315 q 300 454 300 399 q 330 545 300 505 q 408 600 361 585 l 154 600 q 45 645 90 600 q 0 754 0 690 q 45 862 0 817 q 154 907 90 907 l 454 907 q 550 872 508 907 q 604 786 593 838 q 657 872 614 838 q 754 907 699 907 q 862 862 817 907 q 907 754 907 817 q 862 645 907 690 q 754 600 817 600 q 650 557 692 600 q 607 454 607 515 q 576 363 607 404 q 498 307 546 322 l 766 307 l 768 307 q 867 257 827 301 q 907 154 907 213 m 907 1354 q 903 1350 907 1350 q 679 1290 782 1350 q 517 1127 576 1230 q 457 904 457 1025 q 453 900 457 900 q 450 904 450 900 q 390 1127 450 1025 q 227 1290 330 1230 q 3 1350 123 1350 q 0 1354 0 1350 q 3 1357 0 1357 q 227 1417 123 1357 q 390 1580 330 1477 q 450 1804 450 1683 q 453 1807 450 1807 q 457 1804 457 1807 q 492 1631 457 1714 q 587 1488 528 1548 q 730 1393 647 1428 q 903 1357 812 1357 q 907 1354 907 1357 z "}}}
